<?xml version="1.0" encoding="UTF-8"?>
<svg xmlns="http://www.w3.org/2000/svg" xmlns:xlink="http://www.w3.org/1999/xlink" width="13pt" height="13pt" viewBox="0 0 13 13" version="1.1">
<g id="surface1">
<path style=" stroke:none;fill-rule:nonzero;fill:rgb(13.333333%,13.333333%,13.333333%);fill-opacity:1;" d="M 10.859375 11.855469 C 10.992188 11.855469 11.121094 11.800781 11.214844 11.707031 L 12.636719 10.289062 C 12.726562 10.191406 12.785156 10.0625 12.785156 9.929688 C 12.785156 9.796875 12.726562 9.667969 12.636719 9.578125 L 9.671875 6.617188 L 12.636719 3.65625 C 12.730469 3.558594 12.785156 3.425781 12.785156 3.292969 C 12.78125 3.164062 12.726562 3.035156 12.636719 2.945312 L 11.214844 1.527344 C 11.121094 1.429688 10.992188 1.378906 10.859375 1.378906 C 10.726562 1.378906 10.597656 1.429688 10.503906 1.527344 L 5.769531 6.261719 C 5.675781 6.355469 5.621094 6.484375 5.621094 6.617188 C 5.621094 6.75 5.675781 6.878906 5.769531 6.972656 L 10.503906 11.707031 C 10.597656 11.800781 10.726562 11.855469 10.859375 11.855469 Z M 5.6875 11.855469 C 5.820312 11.855469 5.949219 11.800781 6.046875 11.707031 L 7.464844 10.289062 C 7.558594 10.191406 7.613281 10.0625 7.613281 9.929688 C 7.613281 9.796875 7.558594 9.667969 7.464844 9.578125 L 4.503906 6.617188 L 7.464844 3.65625 C 7.5625 3.558594 7.617188 3.425781 7.613281 3.292969 C 7.609375 3.164062 7.558594 3.035156 7.464844 2.945312 L 6.046875 1.527344 C 5.949219 1.429688 5.820312 1.378906 5.6875 1.378906 C 5.554688 1.378906 5.425781 1.429688 5.335938 1.527344 L 0.597656 6.261719 C 0.503906 6.355469 0.453125 6.484375 0.453125 6.617188 C 0.453125 6.75 0.503906 6.878906 0.597656 6.972656 L 5.335938 11.707031 C 5.425781 11.800781 5.554688 11.855469 5.6875 11.855469 Z M 5.6875 11.855469 "/>
</g>
</svg>
