<?xml version="1.0" encoding="UTF-8"?>
<svg xmlns="http://www.w3.org/2000/svg" xmlns:xlink="http://www.w3.org/1999/xlink" width="13pt" height="13pt" viewBox="0 0 13 13" version="1.1">
<g id="surface1">
<path style=" stroke:none;fill-rule:nonzero;fill:rgb(13.333333%,13.333333%,13.333333%);fill-opacity:1;" d="M 2.265625 1.316406 C 2.140625 1.316406 2.015625 1.367188 1.929688 1.457031 L 0.570312 2.8125 C 0.484375 2.902344 0.429688 3.027344 0.429688 3.152344 C 0.429688 3.28125 0.484375 3.402344 0.570312 3.492188 L 3.398438 6.320312 L 0.570312 9.148438 C 0.480469 9.238281 0.425781 9.367188 0.429688 9.492188 C 0.433594 9.617188 0.484375 9.738281 0.570312 9.824219 L 1.929688 11.183594 C 2.015625 11.273438 2.140625 11.324219 2.265625 11.324219 C 2.394531 11.324219 2.519531 11.273438 2.605469 11.183594 L 7.128906 6.65625 C 7.21875 6.570312 7.273438 6.445312 7.273438 6.320312 C 7.273438 6.191406 7.21875 6.070312 7.128906 5.980469 L 2.605469 1.457031 C 2.519531 1.367188 2.394531 1.316406 2.265625 1.316406 Z M 7.203125 1.316406 C 7.078125 1.316406 6.953125 1.367188 6.867188 1.457031 L 5.507812 2.8125 C 5.421875 2.902344 5.367188 3.027344 5.367188 3.152344 C 5.367188 3.28125 5.421875 3.402344 5.507812 3.492188 L 8.335938 6.320312 L 5.507812 9.148438 C 5.417969 9.238281 5.363281 9.367188 5.367188 9.492188 C 5.371094 9.617188 5.421875 9.738281 5.507812 9.824219 L 6.867188 11.183594 C 6.953125 11.273438 7.078125 11.324219 7.203125 11.324219 C 7.332031 11.324219 7.453125 11.273438 7.542969 11.183594 L 12.066406 6.65625 C 12.15625 6.570312 12.207031 6.445312 12.207031 6.320312 C 12.207031 6.191406 12.15625 6.070312 12.066406 5.980469 L 7.542969 1.457031 C 7.453125 1.367188 7.332031 1.316406 7.203125 1.316406 Z M 7.203125 1.316406 "/>
</g>
</svg>
