<?xml version="1.0" ?><svg id="Layer_1" style="enable-background:new 0 0 24 24;" version="1.1" viewBox="0 0 24 24" xml:space="preserve" xmlns="http://www.w3.org/2000/svg" xmlns:xlink="http://www.w3.org/1999/xlink"><title/><g id="Christmas_Date"><g><path d="M17.5,22.5H3    c-0.828,0-1.5-0.672-1.5-1.5V5c0-0.828,0.672-1.5,1.5-1.5h18c0.828,0,1.5,0.672,1.5,1.5v12.5" id="_Path_" style="fill:none;stroke:#303C42;stroke-linecap:round;stroke-linejoin:round;"/><circle cx="7" cy="6" id="_Path_2" r="0.5" style="fill:none;stroke:#303C42;stroke-linecap:round;stroke-linejoin:round;"/><circle cx="17" cy="6" id="_Path_3" r="0.5" style="fill:none;stroke:#303C42;stroke-linecap:round;stroke-linejoin:round;"/><line id="_Path_4" style="fill:none;stroke:#303C42;stroke-linecap:round;stroke-linejoin:round;" x1="7.5" x2="7.5" y1="6" y2="1.5"/><line id="_Path_5" style="fill:none;stroke:#303C42;stroke-linecap:round;stroke-linejoin:round;" x1="17.5" x2="17.5" y1="6" y2="1.5"/><line id="_Path_6" style="fill:none;stroke:#303C42;stroke-linecap:round;stroke-linejoin:round;" x1="1.5" x2="22.5" y1="8.5" y2="8.5"/><path d="M22.5,17.5H19    c-0.828,0-1.5,0.672-1.5,1.5v3.5L22.5,17.5z" id="_Path_7" style="fill:none;stroke:#303C42;stroke-linecap:round;stroke-linejoin:round;"/><path d="M7.5,14L7.5,14    c0-0.828,0.672-1.5,1.5-1.5l0,0c0.828,0,1.5,0.672,1.5,1.5l0,0c0.001,0.646-0.23,1.27-0.65,1.76L7.5,18.5h3" id="_Path_8" style="fill:none;stroke:#303C42;stroke-linecap:round;stroke-linejoin:round;"/><path d="M15.5,12.5H13l-0.5,3l0,0    c0.32-0.322,0.756-0.502,1.21-0.5h0.09c0.939-0.006,1.704,0.751,1.71,1.69c0,0.003,0,0.007,0,0.01V17c0,0.828-0.672,1.5-1.5,1.5    c-0.003,0-0.007,0-0.01,0l0,0c-0.828,0-1.5-0.672-1.5-1.5" style="fill:none;stroke:#303C42;stroke-linecap:round;stroke-linejoin:round;"/></g></g></svg>